<svg
 xmlns="http://www.w3.org/2000/svg"
 xmlns:xlink="http://www.w3.org/1999/xlink"
 width="16px" height="17px">
<path fill-rule="evenodd"  fill="rgb(0, 0, 0)"
 d="M0.352,15.194 L0.820,15.663 C1.291,16.133 2.053,16.133 2.524,15.663 L5.470,12.716 C6.528,13.379 7.778,13.762 9.119,13.762 C12.919,13.762 16.000,10.682 16.000,6.881 C16.000,3.081 12.919,-0.000 9.119,-0.000 C5.318,-0.000 2.237,3.081 2.237,6.881 C2.237,8.229 2.625,9.486 3.295,10.548 L0.352,13.491 C-0.118,13.961 -0.118,14.724 0.352,15.194 ZM9.119,1.904 C11.867,1.904 14.095,4.132 14.095,6.881 C14.095,9.630 11.867,11.858 9.119,11.858 C6.370,11.858 4.142,9.630 4.142,6.881 C4.142,4.132 6.370,1.904 9.119,1.904 Z"/>
</svg>
